<?xml version="1.0" encoding="UTF-8" standalone="no"?> <!-- Created with Vectornator for iOS (http://vectornator.io/) --><!DOCTYPE svg PUBLIC "-//W3C//DTD SVG 1.1//EN" "http://www.w3.org/Graphics/SVG/1.1/DTD/svg11.dtd">
<svg height="100%" style="fill-rule:nonzero;clip-rule:evenodd;stroke-linecap:round;stroke-linejoin:round;" xmlns:xlink="http://www.w3.org/1999/xlink" xmlns="http://www.w3.org/2000/svg" xml:space="preserve" width="100%" xmlns:vectornator="http://vectornator.io" version="1.1" viewBox="0 0 1920 1080">
<metadata>
<vectornator:setting key="DimensionsVisible" value="1"/>
<vectornator:setting key="PencilOnly" value="0"/>
<vectornator:setting key="SnapToPoints" value="0"/>
<vectornator:setting key="OutlineMode" value="0"/>
<vectornator:setting key="GuidesVisible" value="1"/>
<vectornator:setting key="RulersVisible" value="1"/>
<vectornator:setting key="SnapToEdges" value="0"/>
<vectornator:setting key="CMYKEnabledKey" value="0"/>
<vectornator:setting key="DisplayWhiteBackground" value="0"/>
<vectornator:setting key="doHistoryDisabled" value="0"/>
<vectornator:setting key="TimeLapseWatermarkDisabled" value="0"/>
<vectornator:setting key="SnapToGuides" value="1"/>
<vectornator:setting key="DynamicGuides" value="0"/>
<vectornator:setting key="IsolateActiveLayer" value="0"/>
<vectornator:setting key="SnapToGrid" value="0"/>
<vectornator:setting key="Units" value="Pixels"/>
</metadata>
<defs/>
<g id="Layer 1" vectornator:layerName="Layer 1">
<path d="M969.562+85.4688C894.591+84.58+819.435+98.894+750.469+128.5C722.14+140.661+694.957+155.337+669.344+172.5C638.032+193.481+609.336+218.294+584.125+246.312C552.025+281.987+525.799+322.826+506.625+366.812C495.486+392.367+486.69+418.865+480.531+446.062C477.628+458.882+475.44+471.825+473.656+484.844C472.023+496.763+470.92+508.764+470.344+520.781C470.16+524.615+470.344+520.78+469.875+540C469.874+540.124+469.969+540.218+470.094+540.219C470.218+540.219+470.312+540.124+470.312+540C470.374+532.295+470.33+534.853+470.375+532.281C470.442+528.448+470.576+524.643+470.75+520.812C471.381+506.943+472.619+493.032+474.781+479.312C477.78+460.29+482.055+441.381+487.812+423C497.548+391.918+511.226+362.154+528.156+334.344C546.028+304.988+567.536+277.869+591.625+253.375C599.868+244.994+608.455+237.015+617.25+229.219C631.253+216.806+645.953+205.232+661.281+194.5C669.015+189.085+676.838+183.819+684.844+178.812C705.37+165.975+726.847+154.553+748.969+144.719C781.311+130.341+815.134+119.271+849.719+111.75C960.363+87.6875+1078.7+99.152+1181.97+145.938C1211.48+159.308+1239.7+175.51+1266.06+194.344C1300.29+218.791+1331.37+247.742+1357.84+280.438C1388.46+318.245+1412.89+361.119+1429.06+407.031C1447.04+458.072+1454.7+512.509+1451.47+566.531C1448.27+620.005+1434.27+672.592+1410.84+720.75C1390.43+762.717+1363.09+801.193+1330.66+834.719C1302.22+864.118+1269.95+889.714+1235.03+911C1211.85+925.134+1187.49+937.367+1162.34+947.594C1037.54+998.339+893.582+999.252+768.062+950.375C734.887+937.456+703.043+921.092+673.312+901.5C643.829+882.071+616.395+859.511+591.875+834.094C561.818+802.936+536.112+767.551+516.25+729.062C513.55+723.831+510.975+718.557+508.5+713.219C516.908+731.412+526.539+749.076+537.406+765.938C561.359+803.102+590.915+836.542+624.406+865.375C651.98+889.115+682.252+909.679+714.344+926.812C861.953+1005.62+1045.39+1009.17+1196.31+937.188C1227.15+922.479+1256.54+904.699+1283.78+884.062C1315.91+859.718+1345.03+831.4+1369.97+799.719C1399.99+761.591+1423.78+718.587+1439.59+672.688C1457.24+621.467+1464.66+566.917+1461.41+512.844C1458.18+459.318+1444.36+406.649+1421.25+358.281C1403.43+320.981+1380.22+286.357+1352.88+255.375C1328.84+228.149+1301.64+203.766+1272.12+182.625C1245.6+163.629+1217.23+147.23+1187.56+133.656C1119.32+102.433+1044.53+86.3575+969.562+85.4688ZM508.5+713.219C506.657+709.243+504.936+705.218+503.219+701.188C504.933+705.219+506.662+709.241+508.5+713.219ZM503.219+701.188C502.347+699.137+501.464+697.095+500.625+695.031C501.465+697.094+502.346+699.138+503.219+701.188ZM500.625+695.031C498.995+691.03+497.442+686.987+495.938+682.938C497.443+686.992+498.996+691.025+500.625+695.031ZM495.938+682.938C495.321+681.276+494.721+679.607+494.125+677.938C494.721+679.607+495.32+681.276+495.938+682.938ZM494.125+677.938C492.658+673.829+491.212+669.715+489.875+665.562C491.213+669.716+492.658+673.828+494.125+677.938ZM489.875+665.562C489.23+663.559+488.646+661.544+488.031+659.531C488.646+661.544+489.23+663.559+489.875+665.562ZM488.031+659.531C486.758+655.362+485.484+651.208+484.344+647C485.484+651.208+486.758+655.362+488.031+659.531ZM484.344+647C481.922+638.066+479.908+629.018+478.094+619.938C479.903+629.024+481.922+638.066+484.344+647ZM478.094+619.938C477.513+617.022+476.891+614.116+476.375+611.188C476.893+614.113+477.512+617.024+478.094+619.938ZM476.375+611.188C475.86+608.279+475.42+605.357+474.969+602.438C475.261+604.34+475.462+606.258+475.781+608.156C475.952+609.172+476.196+610.173+476.375+611.188ZM474.969+602.438C474.327+598.26+473.731+594.071+473.219+589.875C473.434+591.625+473.575+593.378+473.812+595.125C474.145+597.571+474.591+599.999+474.969+602.438ZM473.219+589.875C472.894+587.229+472.585+584.589+472.312+581.938C472.584+584.588+472.896+587.23+473.219+589.875ZM472.312+581.938C471.827+577.193+471.444+572.446+471.125+567.688C471.447+572.445+471.825+577.194+472.312+581.938ZM471.125+567.688C470.964+565.303+470.776+562.918+470.656+560.531C470.697+561.364+470.704+562.199+470.75+563.031C470.837+564.587+471.021+566.133+471.125+567.688ZM470.656+560.531C470.596+559.303+470.549+558.072+470.5+556.844C470.524+557.619+470.54+558.745+470.562+559.219C470.583+559.657+470.634+560.093+470.656+560.531ZM470.5+556.844C470.33+551.416+470.099+540.518+470.094+540.219C470.095+540.499+470.146+546.488+470.219+549.625C470.275+552.031+470.404+554.439+470.5+556.844Z" opacity="1" fill="#000000"/>
<g opacity="1" vectornator:blendMode="Luminosity">
<path d="M630.452+495.217L712.254+495.217L712.254+516.308L661.043+516.308L661.043+532.008L708.548+532.008L708.548+552.155L661.043+552.155L661.043+571.629L713.737+571.629L713.737+594L630.452+594L630.452+495.217Z" opacity="1" fill="#000000"/>
<path d="M781.391+495.217L811.983+495.217L811.983+594L781.391+594L781.391+495.217Z" opacity="1" fill="#000000"/>
<path d="M883.882+495.217L914.407+495.217L914.407+569.675L962.046+569.675L962.046+594L883.882+594L883.882+495.217Z" opacity="1" fill="#000000"/>
<path d="M1005.31+495.217L1039.2+495.217L1059.15+528.571L1079.09+495.217L1112.78+495.217L1074.38+552.627L1074.38+594L1043.78+594L1043.78+552.627L1005.31+495.217Z" opacity="1" fill="#000000"/>
<path d="M1220.4+577.693L1185.63+577.693L1180.84+594L1149.64+594L1186.77+495.217L1220.06+495.217L1257.19+594L1225.25+594L1220.4+577.693ZM1213.99+556.333L1203.08+520.822L1192.23+556.333L1213.99+556.333Z" opacity="1" fill="#000000"/>
</g>
</g>
</svg>
